:SAMPLES-PER-SECOND 30
:FULLY-SPECIFIED
:DEGREES
413
root  -30.282 37.6973 -19.6822 172.94 -72.7048 -172.354
RightUpLeg  -27.7289 -14.1751 -4.34228
RightLeg  69.2347 -1.46823 -5.08638
RightFoot  1.78404 -0.432958 3.86059
RightToes  0.000482159 0.542163 -0.142577
Spine  39.6148 0.217178 -0.295642
Spine1  11.9355 0.926559 -3.35147
HEad  -15.0419 11.4884 -9.28217
LeftShoulder1  8.73669 -16.772 -36.9588
LeftArm  -14.4749 -19.0371 -28.1348
LeftForeArm  4.30195 -52.706 -14.498
LeftHand  -0.25398 0.0180481 5.50724
RightShoulder  5.7989 11.7577 32.0486
RightArm  -13.7114 8.70759 25.0656
RightForeArm  -38.4309 59.2494 22.0702
RightHand  0.215284 -8.41606 -10.0436
LeftUpLeg  -37.2298 28.1533 -12.5746
LeftLeg  20.2288 1.71413 1.02728
LeftFoot  10.8973 -3.38327 16.7445
LeftToes  1.06245e-005 4.65856e-005 -8.18503e-006
414
root  -30.885 38.0896 -19.7968 171.096 -72.6601 -169.083
RightUpLeg  -32.6115 -14.6525 -1.9411
RightLeg  61.4243 -2.82693 -6.03131
RightFoot  0.694546 -0.592954 5.64208
RightToes  0.000482159 0.542163 -0.142577
Spine  43.53 -0.622127 1.04778
Spine1  12.3763 0.969007 -4.48971
HEad  -18.483 10.8667 -10.1376
LeftShoulder1  8.74416 -17.5152 -35.5014
LeftArm  -15.8238 -25.8912 -28.1216
LeftForeArm  1.24088 -45.1733 -11.1788
LeftHand  -0.25398 0.0180481 5.50724
RightShoulder  5.73794 12.1942 30.5889
RightArm  -14.5756 17.1279 25.3571
RightForeArm  -40.9575 51.4685 16.5397
RightHand  0.102441 -7.78411 -7.23294
LeftUpLeg  -37.0249 28.3639 -11.9034
LeftLeg  19.2748 1.54927 0.93153
LeftFoot  10.197 -3.20774 16.4152
LeftToes  1.06245e-005 4.65856e-005 -8.18503e-006
415
root  -31.48 38.3815 -19.9638 169.139 -72.9191 -165.803
RightUpLeg  -35.4151 -14.5755 0.335951
RightLeg  49.8464 -5.15472 -6.89136
RightFoot  1.04802 -0.544252 5.0888
RightToes  0.000482159 0.542163 -0.142577
Spine  47.5258 -1.45644 2.21063
Spine1  12.4749 1.00308 -5.25195
HEad  -21.7986 9.88506 -10.9402
LeftShoulder1  8.72946 -18.3209 -33.9124
LeftArm  -17.3611 -32.3567 -28.3117
LeftForeArm  -0.880107 -37.7712 -8.72552
LeftHand  -0.25398 0.0180481 5.50724
RightShoulder  5.58365 12.6072 28.653
RightArm  -15.4884 24.8683 24.8953
RightForeArm  -42.119 44.0396 12.965
RightHand  0.0207268 -6.98637 -4.734
LeftUpLeg  -36.8906 28.003 -11.0644
LeftLeg  18.8081 1.42643 0.872285
LeftFoot  9.42214 -3.02998 16.1106
LeftToes  1.06245e-005 4.65856e-005 -8.18503e-006
416
root  -32.1273 38.5682 -20.2535 170.079 -73.7628 -164.691
RightUpLeg  -37.3827 -13.7651 1.35625
RightLeg  35.5121 -5.16947 -4.39478
RightFoot  2.13856 -0.580777 5.01173
RightToes  0.000482159 0.542163 -0.142577
Spine  50.2253 -1.87646 2.65613
Spine1  12.9032 0.912493 -5.20719
HEad  -25.1972 8.44252 -11.6736
LeftShoulder1  8.73986 -19.215 -32.3793
LeftArm  -19.4379 -38.8087 -28.3702
LeftForeArm  -2.36026 -31.0307 -6.91485
LeftHand  -0.25398 0.0180481 5.50724
RightShoulder  5.34415 12.9413 26.4216
RightArm  -16.9579 31.7609 23.3054
RightForeArm  -42.8916 37.5097 10.59
RightHand  -0.0287675 -5.89047 -2.62802
LeftUpLeg  -38.0428 27.3301 -11.4041
LeftLeg  18.9 0.790947 0.630736
LeftFoot  9.02246 -2.91933 15.8386
LeftToes  1.06245e-005 4.65856e-005 -8.18503e-006
417
root  -32.8301 38.5877 -20.6782 172.97 -75.4892 -165.086
RightUpLeg  -38.8473 -12.5244 0.694611
RightLeg  21.5207 -1.28075 -0.571883
RightFoot  3.47397 -0.956443 7.53021
RightToes  0.000482159 0.542163 -0.142577
Spine  51.6075 -2.32729 2.83375
Spine1  14.2627 0.757286 -5.04423
HEad  -28.7996 6.60142 -12.0998
LeftShoulder1  8.96648 -20.4464 -31.3266
LeftArm  -22.4236 -45.3736 -26.9359
LeftForeArm  -3.84095 -25.2508 -5.6055
LeftHand  -0.25398 0.0180481 5.50724
RightShoulder  5.11611 13.2928 24.2887
RightArm  -19.718 37.6747 20.2187
RightForeArm  -43.472 32.0576 8.95114
RightHand  -0.0384761 -4.87528 -0.66299
LeftUpLeg  -40.4876 26.13 -12.5287
LeftLeg  20.5876 0.132119 0.387803
LeftFoot  7.79001 -2.71466 15.72
LeftToes  1.06245e-005 4.65856e-005 -8.18503e-006
418
root  -33.5456 38.4464 -21.2089 174.498 -77.9017 -164.626
RightUpLeg  -39.3446 -10.497 -1.67347
RightLeg  12.082 1.53588 1.84229
RightFoot  4.03266 -1.48349 11.155
RightToes  0.000482159 0.542163 -0.142577
Spine  54.0115 -3.42639 3.50184
Spine1  13.8787 0.50232 -5.54721
HEad  -31.33 5.01708 -11.697
LeftShoulder1  9.37232 -21.8024 -30.886
LeftArm  -25.372 -50.5895 -23.62
LeftForeArm  -5.69051 -20.6803 -4.95112
LeftHand  -0.25398 0.0180481 5.50724
RightShoulder  5.09163 13.7622 23.2672
RightArm  -22.7693 41.7131 15.6578
RightForeArm  -43.6786 27.7407 7.79636
RightHand  -0.0139985 -4.05311 1.45718
LeftUpLeg  -42.9206 24.0924 -12.8406
LeftLeg  23.9285 -0.0171242 0.336257
LeftFoot  5.55791 -2.35994 15.5525
LeftToes  1.06245e-005 4.65856e-005 -8.18503e-006
419
root  -34.1966 38.268 -21.8411 176.304 -80.7153 -164.595
RightUpLeg  -40.0496 -9.20853 -3.73879
RightLeg  8.69262 1.08086 3.26916
RightFoot  5.42683 -1.76807 12.2237
RightToes  0.000482159 0.542163 -0.142577
Spine  56.6787 -3.9872 4.07425
Spine1  13.0106 -0.0637145 -4.24381
HEad  -33.1355 3.44665 -11.4114
LeftShoulder1  10.0178 -22.9816 -31.6586
LeftArm  -28.2679 -55.2875 -19.027
LeftForeArm  -7.32623 -16.7637 -5.09978
LeftHand  -0.25398 0.0180481 5.50724
RightShoulder  4.87669 14.1367 21.3048
RightArm  -26.6222 44.1906 11.2518
RightForeArm  -42.536 23.9505 6.96303
RightHand  0.0504309 -3.12919 3.88573
LeftUpLeg  -44.9917 21.1852 -12.6069
LeftLeg  26.9526 0.151731 0.430928
LeftFoot  3.88557 -2.04279 15.0132
LeftToes  1.06245e-005 4.65856e-005 -8.18503e-006
420
root  -34.7934 38.078 -22.5866 -178.36 -83.7043 -167.837
RightUpLeg  -42.1456 -10.849 -2.87889
RightLeg  9.93981 1.1016 3.62619
RightFoot  9.65668 -1.58697 9.02326
RightToes  0.000482159 0.542163 -0.142577
Spine  58.9876 -4.22761 4.73643
Spine1  12.2272 -0.541236 -2.67146
HEad  -34.8536 1.64702 -10.7067
LeftShoulder1  10.2865 -24.1493 -31.0315
LeftArm  -31.7102 -59.6511 -15.3071
LeftForeArm  -8.01683 -13.4735 -5.35842
LeftHand  -0.25398 0.0180481 5.50724
RightShoulder  4.51611 14.0625 19.2232
RightArm  -32.5838 45.5864 6.96985
RightForeArm  -39.1572 20.4884 6.74338
RightHand  0.160939 -2.19313 6.58743
LeftUpLeg  -47.2521 18.1766 -12.5083
LeftLeg  29.4968 0.0976336 0.408565
LeftFoot  2.73588 -1.76408 14.0729
LeftToes  1.06245e-005 4.65856e-005 -8.18503e-006
